<?xml version="1.0" encoding="UTF-8" standalone="no"?>
<!-- Created with Inkscape (http://www.inkscape.org/) -->

<svg
   xmlns:dc="http://purl.org/dc/elements/1.1/"
   xmlns:cc="http://creativecommons.org/ns#"
   xmlns:rdf="http://www.w3.org/1999/02/22-rdf-syntax-ns#"
   xmlns:svg="http://www.w3.org/2000/svg"
   xmlns="http://www.w3.org/2000/svg"
   xmlns:sodipodi="http://sodipodi.sourceforge.net/DTD/sodipodi-0.dtd"
   xmlns:inkscape="http://www.inkscape.org/namespaces/inkscape"
   width="64"
   height="64"
   id="svg4133"
   version="1.1"
   inkscape:version="0.91 r13725"
   viewBox="0 0 64 64"
   sodipodi:docname="BackflipIcon.svg"
   inkscape:export-filename="C:\Users\David\Pictures\My Art\BackflipIcon.png"
   inkscape:export-xdpi="450"
   inkscape:export-ydpi="450">
  <defs
     id="defs4135">
    <clipPath
       clipPathUnits="userSpaceOnUse"
       id="clipPath4716">
      <path
         style="fill:none;fill-rule:evenodd;stroke:#000000;stroke-width:1.11757052px;stroke-linecap:butt;stroke-linejoin:miter;stroke-opacity:1"
         d="m -4.4871858,28.085714 -0.5439204,-15.257568 42.4257852,0.227725 0,16.168467 z"
         id="path4718"
         inkscape:connector-curvature="0" />
    </clipPath>
    <clipPath
       clipPathUnits="userSpaceOnUse"
       id="clipPath4778">
      <path
         style="fill:none;fill-rule:evenodd;stroke:#000000;stroke-width:6.39429283px;stroke-linecap:butt;stroke-linejoin:miter;stroke-opacity:1"
         d="M 36.348866,98.258887 32.86107,295.90067 360.7139,294.73807 356.06351,91.283289 Z"
         id="path4780"
         inkscape:connector-curvature="0"
         sodipodi:nodetypes="ccccc" />
    </clipPath>
  </defs>
  <sodipodi:namedview
     id="base"
     pagecolor="#ffffff"
     bordercolor="#666666"
     borderopacity="1.0"
     inkscape:pageopacity="0.0"
     inkscape:pageshadow="2"
     inkscape:zoom="5.5"
     inkscape:cx="10.819736"
     inkscape:cy="34.473293"
     inkscape:current-layer="g4792"
     showgrid="true"
     inkscape:document-units="px"
     inkscape:grid-bbox="true"
     inkscape:window-width="1366"
     inkscape:window-height="715"
     inkscape:window-x="-8"
     inkscape:window-y="-8"
     inkscape:window-maximized="1" />
  <metadata
     id="metadata4138">
    <rdf:RDF>
      <cc:Work
         rdf:about="">
        <dc:format>image/svg+xml</dc:format>
        <dc:type
           rdf:resource="http://purl.org/dc/dcmitype/StillImage" />
        <dc:title></dc:title>
      </cc:Work>
    </rdf:RDF>
  </metadata>
  <g
     id="layer1"
     inkscape:label="Layer 1"
     inkscape:groupmode="layer">
    <g
       id="g4701"
       transform="translate(14,7.1451138)">
      <circle
         style="opacity:1;fill:#304269;fill-opacity:1;stroke:none;stroke-width:11.30000019;stroke-miterlimit:4;stroke-dasharray:none;stroke-opacity:1"
         id="path4798"
         cx="18"
         cy="24.854887"
         r="28.727272" />
      <g
         id="g4792"
         transform="matrix(1.3226418,0,0,1.3226418,-3.1622688,0.0914637)"
         style="fill:#ffffff">
        <path
           clip-path="url(#clipPath4716)"
           sodipodi:nodetypes="sssssssssssccssscccccccccccssss"
           style="clip-rule:evenodd;fill:#cccccc;fill-rule:evenodd"
           inkscape:connector-curvature="0"
           d="m 30,1.982 -28,0 c -1.105,0 -2,0.896 -2,2 l 0,18 c 0,1.105 0.895,2 2,2 l 5,0 c 0.641,0 1,-0.453 1,-1 0,-0.547 -0.34,-1.013 -1,-1.013 l -3.78,0 c -0.668,0 -1.21,-0.542 -1.21,-1.21 l 0,-15.522 c 0,-0.668 0.542,-1.21 1.21,-1.21 L 28.791,3.996 c 0.668,0 1.21,0.542 1.21,1.21 l 0,15.553 c 0,0.668 -0.542,1.21 -1.21,1.21 l -11.372,0 2.700125,-2.774125 c 0.39,-0.395 0.39,-1.034 0,-1.429 -0.391,-0.394 -1.024,-0.394 -1.414,0 L 14.293,22.277 c -0.39,0.394 -0.39,1.034 0,1.429 l 0.001,0 c 5.241068,5.635208 3.660654,3.815573 4.411125,4.511125 0.39,0.394 1.024,0.394 1.414,0 0.39,-0.395 0.39,-1.034 0,-1.428 L 17.389,23.983 30,23.983 c 1.105,0 2,-0.895 2,-2 l 0,-18 C 32,2.878 31.105,1.982 30,1.982 Z"
           id="path4802"
           transform="matrix(-1,0,0,-1,32.549864,30.437924)" />
        <path
           transform="matrix(-1,0,0,-1,32,29.88806)"
           id="path4720"
           d="m 30,1.982 -28,0 c -1.105,0 -2,0.896 -2,2 l 0,18 c 0,1.105 0.895,2 2,2 l 5,0 c 0.641,0 1,-0.453 1,-1 0,-0.547 -0.34,-1.013 -1,-1.013 l -3.78,0 c -0.668,0 -1.21,-0.542 -1.21,-1.21 l 0,-15.522 c 0,-0.668 0.542,-1.21 1.21,-1.21 L 28.791,3.996 c 0.668,0 1.21,0.542 1.21,1.21 l 0,15.553 c 0,0.668 -0.542,1.21 -1.21,1.21 l -11.372,0 2.700125,-2.774125 c 0.39,-0.395 0.39,-1.034 0,-1.429 -0.391,-0.394 -1.024,-0.394 -1.414,0 L 14.293,22.277 c -0.39,0.394 -0.39,1.034 0,1.429 l 0.001,0 c 5.241068,5.635208 3.660654,3.815573 4.411125,4.511125 0.39,0.394 1.024,0.394 1.414,0 0.39,-0.395 0.39,-1.034 0,-1.428 L 17.389,23.983 30,23.983 c 1.105,0 2,-0.895 2,-2 l 0,-18 C 32,2.878 31.105,1.982 30,1.982 Z"
           inkscape:connector-curvature="0"
           style="clip-rule:evenodd;fill:#ffffff;fill-rule:evenodd"
           sodipodi:nodetypes="sssssssssssccssscccccccccccssss"
           clip-path="url(#clipPath4716)" />
        <path
           id="path4804"
           d="m 30,1.982 -28,0 c -1.105,0 -2,0.896 -2,2 l 0,18 c 0,1.105 0.895,2 2,2 l 5,0 c 0.641,0 1,-0.453 1,-1 0,-0.547 -0.34,-1.013 -1,-1.013 l -3.78,0 c -0.668,0 -1.21,-0.542 -1.21,-1.21 l 0,-15.522 c 0,-0.668 0.542,-1.21 1.21,-1.21 L 28.791,3.996 c 0.668,0 1.21,0.542 1.21,1.21 l 0,15.553 c 0,0.668 -0.542,1.21 -1.21,1.21 l -11.372,0 2.700125,-2.774125 c 0.39,-0.395 0.39,-1.034 0,-1.429 -0.391,-0.394 -1.024,-0.394 -1.414,0 L 14.293,22.277 c -0.39,0.394 -0.39,1.034 0,1.429 l 0.001,0 c 5.241068,5.635208 3.660654,3.815573 4.411125,4.511125 0.39,0.394 1.024,0.394 1.414,0 0.39,-0.395 0.39,-1.034 0,-1.428 L 17.389,23.983 30,23.983 c 1.105,0 2,-0.895 2,-2 l 0,-18 C 32,2.878 31.105,1.982 30,1.982 Z"
           inkscape:connector-curvature="0"
           style="clip-rule:evenodd;fill:#cccccc;fill-rule:evenodd"
           sodipodi:nodetypes="sssssssssssccssscccccccccccssss"
           clip-path="url(#clipPath4716)"
           transform="translate(0.54986372,0.54986372)" />
        <path
           clip-path="url(#clipPath4716)"
           sodipodi:nodetypes="sssssssssssccssscccccccccccssss"
           style="clip-rule:evenodd;fill:#ffffff;fill-rule:evenodd"
           inkscape:connector-curvature="0"
           d="m 30,1.982 -28,0 c -1.105,0 -2,0.896 -2,2 l 0,18 c 0,1.105 0.895,2 2,2 l 5,0 c 0.641,0 1,-0.453 1,-1 0,-0.547 -0.34,-1.013 -1,-1.013 l -3.78,0 c -0.668,0 -1.21,-0.542 -1.21,-1.21 l 0,-15.522 c 0,-0.668 0.542,-1.21 1.21,-1.21 L 28.791,3.996 c 0.668,0 1.21,0.542 1.21,1.21 l 0,15.553 c 0,0.668 -0.542,1.21 -1.21,1.21 l -11.372,0 2.700125,-2.774125 c 0.39,-0.395 0.39,-1.034 0,-1.429 -0.391,-0.394 -1.024,-0.394 -1.414,0 L 14.293,22.277 c -0.39,0.394 -0.39,1.034 0,1.429 l 0.001,0 c 5.241068,5.635208 3.660654,3.815573 4.411125,4.511125 0.39,0.394 1.024,0.394 1.414,0 0.39,-0.395 0.39,-1.034 0,-1.428 L 17.389,23.983 30,23.983 c 1.105,0 2,-0.895 2,-2 l 0,-18 C 32,2.878 31.105,1.982 30,1.982 Z"
           id="Loop" />
      </g>
      <g
         id="g4683" />
      <g
         id="g4685" />
      <g
         id="g4687" />
      <g
         id="g4689" />
      <g
         id="g4691" />
      <g
         id="g4693" />
      <path
         style="fill:#d1d3d4"
         inkscape:connector-curvature="0"
         d="m -2.8374249,36.29834 0,-3.408665 41.8961109,0 0,3.408665 c 0,0.863739 -0.700156,1.563894 -1.563895,1.563894 l -38.7683213,0 c -0.863739,0 -1.5638946,-0.700155 -1.5638946,-1.563894 z"
         id="path4728" />
      <path
         style="fill:#808285"
         inkscape:connector-curvature="0"
         d="m 25.287187,43.224829 c -0.15639,-0.182976 -1.662577,-1.418453 -1.825065,-1.773457 -0.129804,-0.387845 -0.469169,-3.543941 -0.469169,-3.543941 l -5.317241,0.0047 0,0.0027 -4.439272,-0.0038 c 0,0 -0.339365,3.156096 -0.469168,3.543785 -0.162645,0.35516 -1.668676,1.590637 -1.825065,1.773613 -0.156389,0.181255 0,0.364387 0,0.364387 0,0 0.179691,0.207842 0.664655,0.250223 0.253351,0.02346 3.65795,0.03581 6.94682,0.03456 l 0,-0.0033 c 2.991418,-9.38e-4 5.837862,-0.01314 6.068849,-0.03472 0.484808,-0.04222 0.664656,-0.250223 0.664656,-0.250223 0,0 0.156389,-0.183132 0,-0.364544 z"
         id="path4732" />
      <path
         style="fill:#d1d3d4"
         inkscape:connector-curvature="0"
         d="m 25.287187,43.068439 c -0.15639,-0.182975 -1.662577,-1.418452 -1.825065,-1.773456 -0.129804,-0.387846 -0.469169,-3.543942 -0.469169,-3.543942 l -5.317241,0.0047 0,0.0027 -4.439272,-0.0038 c 0,0 -0.339365,3.156096 -0.469168,3.543786 -0.162645,0.35516 -1.668676,1.590637 -1.825065,1.773612 -0.156389,0.181256 0,0.364388 0,0.364388 0,0 0.179691,0.207841 0.664655,0.250223 0.253351,0.02346 3.65795,0.03581 6.94682,0.03456 l 0,-0.0033 c 2.991418,-9.38e-4 5.837862,-0.01314 6.068849,-0.03472 0.484808,-0.04223 0.664656,-0.250223 0.664656,-0.250223 0,0 0.156389,-0.183132 0,-0.364544 z"
         id="path4734" />
      <g
         id="g4736"
         transform="matrix(0.15638946,0,0,0.15638946,-10.66503,-14.05328)">
        <path
           style="fill:#808285"
           inkscape:connector-curvature="0"
           d="m 215.969,338.063 -63.885,0.063 c 0.292,-3.083 0.667,-6.125 0.667,-6.125 l 28.597,0.076 0,-0.015 33.924,-0.084 c -0.001,10e-4 0.301,2.938 0.697,6.085 z"
           id="path4738" />
      </g>
      <rect
         style="opacity:1;fill:#304269;fill-opacity:1;stroke:none;stroke-width:11.30000019;stroke-miterlimit:4;stroke-dasharray:none;stroke-opacity:1"
         id="rect4800"
         width="50.727272"
         height="1.3076257"
         x="-7.1818185"
         y="31.693043" />
    </g>
  </g>
</svg>
